<svg xmlns="http://www.w3.org/2000/svg" width="1024" height="1024" viewBox="0 0 1024 1024" role="img" aria-label="DeutschBoost app icon">
  <defs>
    <linearGradient id="bg" x1="132" y1="84" x2="886" y2="932" gradientUnits="userSpaceOnUse">
      <stop offset="0" stop-color="#0f766e"/>
      <stop offset="0.45" stop-color="#1d4ed8"/>
      <stop offset="1" stop-color="#111827"/>
    </linearGradient>
    <linearGradient id="bubble" x1="248" y1="200" x2="756" y2="728" gradientUnits="userSpaceOnUse">
      <stop offset="0" stop-color="#ffffff"/>
      <stop offset="1" stop-color="#eaf2ff"/>
    </linearGradient>
    <linearGradient id="letter" x1="372" y1="298" x2="620" y2="720" gradientUnits="userSpaceOnUse">
      <stop offset="0" stop-color="#123c7c"/>
      <stop offset="1" stop-color="#0f172a"/>
    </linearGradient>
    <filter id="softShadow" x="-20%" y="-20%" width="140%" height="150%" color-interpolation-filters="sRGB">
      <feDropShadow dx="0" dy="26" stdDeviation="34" flood-color="#020617" flood-opacity="0.28"/>
    </filter>
    <filter id="innerGlow" x="-20%" y="-20%" width="140%" height="140%" color-interpolation-filters="sRGB">
      <feDropShadow dx="0" dy="-10" stdDeviation="18" flood-color="#ffffff" flood-opacity="0.18"/>
    </filter>
  </defs>

  <rect width="1024" height="1024" rx="236" fill="url(#bg)"/>
  <path d="M146 231C212 145 337 92 511 92c247 0 412 126 412 323 0 274-220 455-462 455-144 0-268-53-343-145 74 55 182 81 308 69 268-25 424-183 424-377 0-155-121-255-339-255-154 0-282 28-365 69z" fill="#ffffff" opacity="0.08"/>
  <path d="M760 124c68 29 122 74 158 132-44-27-97-45-158-52V124z" fill="#facc15" opacity="0.9"/>
  <path d="M808 219c49 14 91 36 124 67-12-25-28-49-47-70-23-6-49-10-77-12v15z" fill="#dc2626" opacity="0.9"/>

  <g filter="url(#softShadow)">
    <path d="M253 220h518c75 0 136 61 136 136v227c0 75-61 136-136 136H587L446 832v-113H253c-75 0-136-61-136-136V356c0-75 61-136 136-136z" fill="url(#bubble)"/>
  </g>

  <g filter="url(#innerGlow)">
    <rect x="268" y="307" width="151" height="24" rx="12" fill="#111827"/>
    <rect x="268" y="342" width="151" height="24" rx="12" fill="#dc2626"/>
    <rect x="268" y="377" width="151" height="24" rx="12" fill="#facc15"/>
  </g>

  <circle cx="756" cy="325" r="42" fill="#dbeafe"/>
  <path d="M737 326l18 18 38-48" fill="none" stroke="#1d4ed8" stroke-width="23" stroke-linecap="round" stroke-linejoin="round"/>

  <text x="512" y="656" text-anchor="middle" font-family="Segoe UI, Inter, Arial, sans-serif" font-size="377" font-weight="900" letter-spacing="0" fill="url(#letter)">ß</text>
</svg>
